<?xml version="1.0" standalone="no"?><!-- Generator: Gravit.io --><svg xmlns="http://www.w3.org/2000/svg" xmlns:xlink="http://www.w3.org/1999/xlink" style="isolation:isolate" viewBox="1228 189.343 400.835 390.156" width="400.835" height="390.156"><g id="null"><g id="null"><path d=" M 1593.429 554.941 C 1591.51 555.304 1589.529 555.453 1587.525 555.376 C 1587.263 562.193 1584.641 568.224 1579.659 572.944 C 1575.202 577.139 1569.171 579.499 1562.878 579.499 C 1562.878 579.499 1562.878 579.499 1562.878 579.499 C 1556.06 579.499 1549.243 576.615 1544.523 571.371 C 1536.132 562.193 1535.87 547.772 1543.999 538.595 L 1374.664 376.452 L 1407.095 364.835 L 1574.415 511.062 C 1578.61 507.916 1583.855 506.08 1589.361 506.08 C 1596.178 506.08 1602.996 508.965 1607.716 514.209 C 1616.369 523.911 1615.844 539.643 1605.618 548.821 C 1602.285 551.968 1598.038 554.07 1593.429 554.941 Z " fill="rgb(207,210,215)"/><path d=" M 1252.066 220.153 C 1245.249 220.431 1239.225 223.067 1234.516 228.06 C 1230.331 232.527 1227.985 238.563 1228 244.856 C 1228 244.856 1228 244.856 1228 244.856 C 1228.016 251.674 1230.916 258.484 1236.171 263.192 C 1245.368 271.562 1259.79 271.79 1268.949 263.641 L 1424.696 422.329 C 1421.559 426.532 1462.765 408.222 1458.579 412.164 L 1296.41 233.16 C 1299.547 228.958 1301.37 223.709 1301.357 218.203 C 1301.342 211.385 1298.441 204.575 1293.186 199.867 C 1283.464 191.237 1267.733 191.798 1258.579 202.045 C 1254.133 206.775 1251.788 213.336 1252.066 220.153 Z " fill="rgb(207,210,215)"/><path d=" M 1267.324 550.536 C 1267.586 557.353 1270.209 563.384 1275.191 568.104 C 1279.648 572.299 1285.679 574.659 1291.972 574.659 C 1291.972 574.659 1291.972 574.659 1291.972 574.659 C 1298.789 574.659 1305.607 571.775 1310.327 566.53 C 1318.717 557.353 1318.98 542.931 1310.851 533.754 L 1480.185 371.611 L 1447.755 359.994 L 1280.435 506.222 C 1276.239 503.076 1270.995 501.24 1265.489 501.24 C 1258.671 501.24 1251.854 504.124 1247.134 509.369 C 1238.481 519.07 1239.006 534.803 1249.232 543.98 C 1253.952 548.438 1260.507 550.798 1267.324 550.536 Z " fill="rgb(207,210,215)"/><path d=" M 1604.769 219.797 C 1611.586 220.075 1617.611 222.711 1622.319 227.704 C 1626.504 232.171 1628.85 238.208 1628.835 244.501 C 1628.835 244.501 1628.835 244.501 1628.835 244.501 C 1628.82 251.318 1625.919 258.129 1620.664 262.837 C 1611.468 271.206 1597.045 271.435 1587.887 263.285 L 1432.14 421.974 C 1435.276 426.176 1394.071 407.866 1398.257 411.809 L 1560.425 232.805 C 1557.289 228.602 1555.465 223.354 1555.478 217.847 C 1555.494 211.03 1558.394 204.219 1563.649 199.512 C 1573.371 190.881 1589.102 191.442 1598.256 201.689 C 1602.703 206.42 1605.047 212.98 1604.769 219.797 Z " fill="rgb(207,210,215)"/><path d=" M 1424.915 201.713 L 1404.617 195.904 L 1391.084 205.585 L 1375.619 209.941 L 1357.254 223.979 L 1355.804 236.08 L 1350.971 241.404 L 1343.238 248.181 L 1335.506 259.798 L 1329.223 273.835 L 1327.773 288.84 L 1325.84 307.718 L 1325.84 325.143 L 1327.773 342.569 L 1327.773 414.691 L 1333.089 450.51 L 1343.238 463.095 L 1355.804 490.685 L 1367.886 514.887 L 1417.666 521.18 L 1488.71 514.887 L 1504.175 498.43 L 1518.191 465.999 L 1526.89 436.473 L 1526.89 395.813 L 1529.79 323.207 L 1529.79 290.776 L 1518.191 271.415 L 1522.057 255.925 L 1510.942 244.308 L 1501.276 241.404 L 1508.525 238.016 L 1498.859 223.979 L 1476.144 209.941 L 1460.679 208.005 L 1451.496 199.777 L 1437.964 199.777 L 1424.915 201.713 Z " fill="rgb(244,244,244)" vector-effect="non-scaling-stroke" stroke-width="0.484" stroke="rgb(0,0,0)" stroke-linejoin="miter" stroke-linecap="square" stroke-miterlimit="3"/><path d=" M 1522.771 444.286 C 1517.899 450.94 1510.079 455.688 1501.276 465.999 C 1494.677 473.727 1503.291 493.84 1495.332 502.157 C 1483.26 514.772 1453.342 515.757 1427.316 511.838 C 1411.426 511.847 1376.821 514.028 1362.912 504.416 C 1351.076 496.237 1373.58 462.224 1339.778 460.046 C 1326.852 436.847 1323.977 425.78 1323.977 426.163 L 1332.563 463.258 L 1337.971 506.675 Q 1337.971 526.552 1427.316 542.641 C 1443.467 542.641 1519.357 525.417 1519.357 506.675 Q 1521.382 469.483 1521.531 467.79 C 1523.023 450.894 1530.863 414.589 1530.703 420.094 C 1530.544 425.599 1527.643 437.632 1522.771 444.286 Z  M 1423.717 493.444" fill-rule="evenodd" fill="rgb(207,210,215)" vector-effect="non-scaling-stroke" stroke-width="4.857" stroke="rgb(207,210,215)" stroke-linejoin="miter" stroke-linecap="butt" stroke-miterlimit="4"/><path d=" M 1534.885 318.216 C 1536.342 307.743 1536.255 297.332 1534.885 292.695 C 1533.042 286.841 1527.767 275.469 1522.288 272.239 C 1525.683 268.318 1527.311 263.292 1526.823 258.244 C 1525.959 252.6 1521.749 247.748 1514.272 243.764 C 1513.825 235.869 1509.765 228.55 1503.152 223.717 C 1501.614 222.516 1500.129 221.163 1498.645 220.039 C 1489.657 212.556 1480.373 204.716 1460.859 206.402 C 1459.085 201.64 1455.359 197.755 1450.521 195.624 C 1444.367 193.275 1437.026 194.603 1428.362 199.557 L 1423.531 199.149 C 1420.832 197.335 1410.036 190.874 1400.076 193.709 C 1394.678 195.267 1390.387 199.302 1387.58 205.712 C 1379.706 205.35 1371.934 207.519 1365.529 211.867 C 1357.243 217.613 1352.034 226.909 1349.685 239.525 C 1343.073 241.849 1321.804 253.341 1322.965 304.826 C 1322.174 306.27 1321.735 311.642 1321.977 317.95 C 1322.188 323.475 1319.526 324.051 1321 329 C 1322.814 334.901 1325.368 339.567 1330.873 342.828 C 1327.479 346.749 1325.85 351.775 1326.339 356.823 C 1327.202 362.467 1331.413 367.319 1338.889 371.303 C 1339.361 379.157 1343.407 386.433 1349.982 391.248 C 1351.521 392.449 1353.005 393.802 1354.49 394.926 C 1363.477 402.434 1372.789 410.249 1392.276 408.563 C 1394.314 412.999 1397.935 416.615 1402.505 418.779 C 1408.389 421.333 1415.515 421.128 1423.639 417.91 L 1427.795 418.191 C 1433.156 421.057 1439.16 422.676 1445.312 422.916 C 1454.519 423.079 1462.752 417.519 1465.582 409.227 C 1473.456 409.593 1481.229 407.424 1487.633 403.073 C 1495.919 397.327 1501.128 388.031 1503.476 375.415 C 1510.089 373.091 1529.495 398.251 1528.334 346.765 C 1529.169 345.243 1533.013 331.679 1534.885 318.216 Z  M 1422.775 412.573 L 1422.775 412.803 L 1422.154 413.058 C 1415.299 415.867 1409.496 416.276 1404.935 414.258 C 1401.391 412.355 1398.754 409.238 1397.566 405.55 L 1403.774 396.586 L 1399.24 393.777 L 1393.005 402.792 L 1392.465 403.43 C 1374.894 405.039 1367.121 398.578 1358.16 391.095 C 1356.649 389.844 1355.11 388.541 1353.545 387.315 C 1348.744 383.796 1345.533 378.686 1344.557 373.014 L 1344.719 373.014 C 1348.023 373.993 1351.459 374.518 1354.922 374.572 C 1360.419 374.932 1365.711 372.525 1368.849 368.238 L 1364.314 365.429 C 1358.916 373.091 1343.775 367.498 1340.374 366.119 C 1335.273 363.156 1332.277 359.785 1331.818 356.133 C 1330.846 349.8 1336.946 344.13 1337 344.079 L 1339.699 341.653 L 1336.46 339.967 C 1330.898 337.412 1329.215 333.197 1327.391 327.607 C 1325.07 319.945 1325.826 311.415 1327.391 308.172 L 1327.769 307.968 C 1332.655 305.746 1342.128 302.86 1345.394 305.414 C 1349.955 309.219 1356.19 313.944 1356.19 313.944 C 1358.708 314.409 1359.167 311.926 1357.216 308.402 Q 1357.216 308.402 1348.957 301.506 C 1343.829 297.242 1334.652 299.668 1329.092 301.762 L 1328.471 302.017 C 1328.066 254.465 1348.093 245.348 1352.061 244.02 L 1352.762 244.377 C 1356.298 246.292 1364.908 253.137 1358.943 272.214 Q 1358.943 272.214 1353.197 286.61 C 1352.987 287.136 1353.228 287.358 1353.735 287.106 C 1357.199 285.387 1360.637 281.826 1362.533 277.5 L 1362.533 277.5 Q 1378.538 272.01 1398.655 281.063 C 1399.171 281.296 1399.252 281.221 1398.835 280.897 C 1398.835 280.897 1382.209 268.255 1364.692 271.678 L 1364.692 271.678 C 1370.09 251.962 1360.886 243.585 1355.893 240.546 L 1355.11 240.061 C 1357.135 229.029 1361.696 220.984 1368.606 216.106 C 1374.488 212.121 1381.705 210.304 1388.902 210.998 L 1391.143 211.33 L 1391.898 209.313 C 1394.057 203.465 1397.296 199.864 1401.561 198.663 C 1410.198 196.11 1420.724 203.771 1420.832 203.771 C 1421.294 204.164 1421.702 204.61 1422.046 205.099 C 1428.12 215.139 1428.232 227.446 1422.343 237.584 C 1421.843 238.446 1421.216 239.237 1420.481 239.933 C 1412.934 237.799 1404.922 237.605 1397.269 239.372 L 1397.269 239.167 C 1394.084 234.06 1386.473 232.425 1381.642 232.425 C 1376.811 232.425 1389.064 237.533 1392.087 241.083 L 1392.087 241.083 C 1387.321 243.26 1383.216 246.546 1380.772 249.813 C 1380.433 250.266 1380.574 250.439 1381.087 250.2 Q 1392.584 244.829 1401.14 243.228 C 1410.055 241.56 1415.818 243.824 1418.43 244.53 L 1418.43 244.658 C 1416.945 249.766 1416.594 258.066 1420.886 270.196 C 1428.47 291.7 1419.671 304.162 1419.293 304.648 L 1418.97 305.235 C 1415.165 316.785 1417.292 329.354 1424.718 339.201 C 1433.571 351.23 1423.369 364.101 1420.103 367.676 L 1419.806 367.932 C 1419.59 367.932 1418.7 367.702 1417.296 367.472 C 1410.279 366.042 1397.296 362.084 1394.327 355.341 C 1392.978 352.277 1393.842 348.804 1397.026 344.743 C 1402.829 337.081 1401.264 338.358 1399.24 335.498 C 1395.731 330.263 1381.806 326.304 1375.032 327.607 C 1366.934 328.986 1367.256 329.905 1366.042 335.498 L 1371.44 336.52 C 1372.357 332.306 1374.562 335.433 1379.123 334.666 C 1384.926 333.67 1387.526 334.987 1389.334 337.694 C 1391.143 340.401 1394.435 339.482 1392.546 341.883 C 1388.336 347.425 1387.148 352.66 1389.334 357.436 C 1391.647 361.773 1395.456 365.232 1400.13 367.242 C 1391.331 368.392 1382.128 372.171 1378.268 382.208 L 1383.369 383.944 C 1388.929 369.439 1411.358 371.175 1417.701 372.299 L 1419.617 372.656 C 1419.617 372.656 1432.654 379.909 1422.775 412.573 Z  M 1526.309 308.172 C 1523.61 309.474 1513.598 312.156 1507.363 309.066 C 1505.096 307.942 1504.664 305.976 1504.151 302.886 C 1503.638 299.795 1502.936 295.454 1502.835 295.424 C 1500.12 294.623 1498.034 296.268 1498.178 299.094 Q 1498.24 300.306 1498.78 303.677 C 1499.32 307.048 1500.021 311.339 1504.826 313.612 C 1507.332 314.813 1523.5 316.635 1526.309 316.574 Q 1530.209 316.487 1526.309 327.891 C 1526.659 375.597 1504.988 369.566 1501.155 370.843 C 1497.781 369.081 1488.254 362.084 1494.327 342.751 C 1494.327 342.751 1496.864 334.655 1502.424 332.28 L 1498.78 329.803 C 1494.392 331.985 1492.384 333.359 1490.494 337.694 C 1474.516 343.134 1456.972 330.033 1456.81 329.803 L 1453.571 333.532 C 1454.246 334.042 1467.228 343.926 1482.289 343.926 C 1484.391 343.925 1486.489 343.728 1488.551 343.338 C 1486.451 349.926 1486.451 356.952 1488.551 363.539 L 1488.551 363.539 C 1481.506 366.093 1470.845 368.647 1466.58 365.863 L 1463.477 370.052 C 1466.108 371.605 1469.177 372.362 1472.275 372.222 C 1478.657 371.905 1484.931 370.539 1490.818 368.187 L 1490.953 368.187 C 1492.866 370.911 1495.38 373.211 1498.321 374.929 C 1496.297 385.962 1491.735 394.032 1484.826 398.91 C 1479.323 402.592 1472.661 404.393 1465.933 404.018 L 1458.969 393.547 L 1454.273 396.101 L 1460.778 406.776 C 1459.297 411.382 1455.726 415.126 1451.034 416.991 C 1441.695 420.183 1430.171 413.722 1430.063 413.671 L 1429.496 413.365 L 1429.496 413.058 C 1438.16 384.659 1428.902 375.159 1424.907 370.588 C 1431.277 363.36 1438.592 349.161 1429.253 336.494 C 1422.905 328.101 1420.984 317.414 1424.044 307.508 C 1425.501 305.337 1432.789 293.206 1427.606 273.644 C 1428.983 273.976 1430.629 274.308 1432.195 274.512 C 1439.05 276.53 1447.309 280.054 1449.577 285.264 C 1450.926 288.329 1450.062 291.802 1446.878 295.862 C 1441.102 303.524 1442.154 308.478 1444.179 311.339 C 1446.878 315.374 1452.465 316.983 1457.998 316.983 C 1459.636 316.985 1461.271 316.849 1462.883 316.574 C 1470.98 315.195 1476.648 310.828 1476.774 310.247 C 1477.375 307.481 1475.792 306.233 1473.243 307.462 Q 1466.365 310.777 1461.803 311.543 C 1456 312.539 1450.467 311.313 1448.659 308.606 C 1446.851 305.899 1449.469 301.251 1451.358 298.85 C 1455.568 293.309 1456.756 288.073 1454.57 283.298 C 1452.633 279.457 1449.445 276.306 1445.474 274.308 C 1454.783 272.987 1462.549 266.888 1465.636 258.474 C 1468.723 250.06 1465.96 243.253 1460.562 256.661 C 1455.164 270.069 1441.668 270.528 1432.951 269.303 C 1430.57 268.642 1428.156 268.096 1425.717 267.668 C 1421.696 255.691 1422.694 248.514 1424.206 244.684 L 1424.53 244.045 C 1426.747 241.007 1428.56 237.722 1429.928 234.264 L 1429.928 234.264 C 1435.622 239.791 1443.365 243.006 1451.52 243.228 C 1459.066 243.005 1466.293 240.295 1471.164 236.224 C 1471.599 235.861 1471.543 235.776 1471.039 236.034 Q 1450.224 246.701 1431.439 228.594 C 1433.289 220.856 1432.736 212.777 1429.847 205.329 L 1429.604 204.742 L 1430.359 204.307 C 1437.674 199.915 1443.855 198.587 1448.362 200.323 C 1454.408 202.596 1456.459 209.619 1456.459 209.67 L 1457.026 211.867 L 1459.401 211.611 C 1477.862 209.619 1485.96 216.234 1495.082 223.895 C 1496.594 225.147 1498.132 226.449 1499.698 227.675 C 1504.396 231.11 1507.588 236.067 1508.658 241.593 C 1501.695 239.729 1490.116 238.401 1484.951 245.858 C 1484.629 246.323 1484.826 246.672 1485.391 246.636 Q 1503.665 245.475 1509.252 246.956 L 1510.251 247.34 C 1516.998 250.634 1520.75 254.465 1521.398 258.73 C 1522.369 265.063 1516.27 270.733 1516.216 270.784 L 1513.517 273.21 L 1516.755 274.895 C 1522.318 277.451 1526.51 282.075 1528.334 287.665 C 1530.736 295.479 1527.874 304.954 1526.309 308.172 Z " fill="rgb(207,210,215)" vector-effect="non-scaling-stroke" stroke-width="7.313" stroke="rgb(207,210,215)" stroke-linejoin="miter" stroke-linecap="square" stroke-miterlimit="3"/><rect x="1331.778" y="333.439" width="191.015" height="114.959" transform="matrix(1,0,0,1,0,0)" fill="rgb(244,244,244)"/><path d=" M 1319.71 325.143 C 1318.879 323.409 1305.649 360.999 1306.421 381.776 Q 1307.086 399.663 1319.71 430.18 C 1319.71 450.057 1335.15 464.307 1352.62 466.242 L 1352.62 486.504 C 1352.62 503.616 1364.064 516.515 1379.248 516.515 L 1472.973 516.515 C 1489.018 516.515 1502.58 502.77 1502.58 486.504 L 1502.58 466.237 C 1512.558 465.13 1525.065 461.694 1530.706 451.614 C 1533.725 447.488 1535.592 442.463 1535.592 436.487 Q 1550.34 399.766 1549.894 378.388 Q 1549.483 358.715 1535.592 325.143 C 1535.592 322.717 1319.71 323.663 1319.71 325.143 Z  M 1521.325 436.487 C 1521.325 451.252 1508.705 456.494 1497.894 456.494 C 1495.307 456.494 1493.208 458.73 1493.208 461.496 L 1493.208 486.504 C 1493.208 497.163 1483.751 506.512 1472.973 506.512 L 1469.777 506.512 L 1460.404 506.512 L 1432.287 506.512 L 1422.914 506.512 L 1394.797 506.512 L 1385.424 506.512 L 1379.248 506.512 C 1369.247 506.512 1361.993 498.094 1361.993 486.504 L 1361.993 461.496 C 1361.993 458.73 1359.893 456.494 1357.307 456.494 C 1342.414 456.494 1333.875 447.381 1333.875 431.485 L 1333.875 336.451 L 1521.325 336.451 L 1521.325 436.487 L 1521.325 436.487 Z " fill-rule="evenodd" fill="rgb(207,210,215)" vector-effect="non-scaling-stroke" stroke-width="4.841" stroke="rgb(207,210,215)" stroke-linejoin="miter" stroke-linecap="butt" stroke-miterlimit="4"/><path d=" M 1407.544 385.967 L 1407.544 385.967 L 1407.544 386.449 L 1407.544 386.449 Q 1407.544 389.583 1406.958 392.958 L 1406.958 392.958 L 1406.958 392.958 Q 1406.373 396.333 1405.328 399.628 L 1405.328 399.628 L 1405.328 399.628 Q 1404.282 402.922 1402.944 406.137 L 1402.944 406.137 L 1402.944 406.137 Q 1401.606 409.351 1400.101 412.083 L 1400.101 412.083 L 1400.101 412.083 Q 1399.599 413.047 1398.805 414.413 L 1398.805 414.413 L 1398.805 414.413 Q 1398.01 415.78 1397.007 416.985 L 1397.007 416.985 L 1397.007 416.985 Q 1396.003 418.19 1394.832 419.074 L 1394.832 419.074 L 1394.832 419.074 Q 1393.662 419.958 1392.324 419.958 L 1392.324 419.958 L 1392.324 419.958 Q 1391.404 419.958 1390.526 419.315 L 1390.526 419.315 L 1390.526 419.315 Q 1389.648 418.673 1389.648 417.708 L 1389.648 417.708 L 1389.648 417.708 Q 1389.648 416.503 1390.567 414.976 L 1390.567 414.976 L 1390.567 414.976 Q 1391.487 413.449 1391.989 412.244 L 1391.989 412.244 L 1391.989 412.244 Q 1394.665 406.217 1396.714 399.507 L 1396.714 399.507 L 1396.714 399.507 Q 1398.763 392.797 1398.763 386.047 L 1398.763 386.047 L 1398.763 386.047 Q 1398.763 379.377 1396.923 372.627 L 1396.923 372.627 L 1396.923 372.627 Q 1395.083 365.877 1392.156 359.77 L 1392.156 359.77 L 1392.156 359.77 Q 1391.655 358.645 1390.944 357.56 L 1390.944 357.56 L 1390.944 357.56 Q 1390.233 356.475 1390.233 355.35 L 1390.233 355.35 L 1390.233 355.35 Q 1390.233 354.225 1391.027 353.542 L 1391.027 353.542 L 1391.027 353.542 Q 1391.822 352.859 1392.909 352.859 L 1392.909 352.859 L 1392.909 352.859 Q 1394.414 352.859 1395.752 353.663 L 1395.752 353.663 L 1395.752 353.663 Q 1397.09 354.466 1398.177 355.672 L 1398.177 355.672 L 1398.177 355.672 Q 1399.265 356.877 1400.101 358.243 L 1400.101 358.243 L 1400.101 358.243 Q 1400.937 359.609 1401.523 360.734 L 1401.523 360.734 L 1401.523 360.734 Q 1404.449 366.52 1405.997 373.029 L 1405.997 373.029 L 1405.997 373.029 Q 1407.544 379.538 1407.544 385.967 Z  M 1366.149 355.35 L 1366.149 355.35 L 1366.149 355.35 Q 1366.149 356.475 1365.229 358.042 L 1365.229 358.042 L 1365.229 358.042 Q 1364.309 359.609 1363.807 360.734 L 1363.807 360.734 L 1363.807 360.734 Q 1361.131 366.761 1359.208 373.391 L 1359.208 373.391 L 1359.208 373.391 Q 1357.284 380.02 1357.284 386.69 L 1357.284 386.69 L 1357.284 386.69 Q 1357.284 393.36 1359.25 400.27 L 1359.25 400.27 L 1359.25 400.27 Q 1361.215 407.181 1364.142 413.208 L 1364.142 413.208 L 1364.142 413.208 Q 1364.727 414.333 1365.438 415.418 L 1365.438 415.418 L 1365.438 415.418 Q 1366.149 416.503 1366.149 417.708 L 1366.149 417.708 L 1366.149 417.708 Q 1366.149 418.833 1365.354 419.476 L 1365.354 419.476 L 1365.354 419.476 Q 1364.56 420.119 1363.389 420.119 L 1363.389 420.119 L 1363.389 420.119 Q 1361.884 420.119 1360.588 419.315 L 1360.588 419.315 L 1360.588 419.315 Q 1359.291 418.512 1358.204 417.306 L 1358.204 417.306 L 1358.204 417.306 Q 1357.117 416.101 1356.239 414.735 L 1356.239 414.735 L 1356.239 414.735 Q 1355.361 413.369 1354.776 412.244 L 1354.776 412.244 L 1354.776 412.244 Q 1351.681 406.458 1350.092 399.869 L 1350.092 399.869 L 1350.092 399.869 Q 1348.504 393.279 1348.504 386.77 L 1348.504 386.77 L 1348.504 386.77 Q 1348.504 383.556 1349.089 380.181 L 1349.089 380.181 L 1349.089 380.181 Q 1349.674 376.806 1350.678 373.471 L 1350.678 373.471 L 1350.678 373.471 Q 1351.681 370.136 1352.978 367.002 L 1352.978 367.002 L 1352.978 367.002 Q 1354.274 363.868 1355.779 360.975 L 1355.779 360.975 L 1355.779 360.975 Q 1356.281 360.011 1357.033 358.645 L 1357.033 358.645 L 1357.033 358.645 Q 1357.786 357.279 1358.79 356.033 L 1358.79 356.033 L 1358.79 356.033 Q 1359.793 354.788 1360.964 353.904 L 1360.964 353.904 L 1360.964 353.904 Q 1362.135 353.02 1363.473 353.02 L 1363.473 353.02 L 1363.473 353.02 Q 1364.56 353.02 1365.354 353.663 L 1365.354 353.663 L 1365.354 353.663 Q 1366.149 354.305 1366.149 355.35 Z " fill-rule="evenodd" fill="rgb(207,210,215)" vector-effect="non-scaling-stroke" stroke-width="3.95" stroke="rgb(207,210,215)" stroke-linejoin="miter" stroke-linecap="square" stroke-miterlimit="3"/><path d=" M 1507.199 386.093 L 1507.199 386.093 L 1507.199 386.575 L 1507.199 386.575 Q 1507.199 389.709 1506.614 393.084 L 1506.614 393.084 L 1506.614 393.084 Q 1506.028 396.459 1504.983 399.754 L 1504.983 399.754 L 1504.983 399.754 Q 1503.938 403.048 1502.599 406.263 L 1502.599 406.263 L 1502.599 406.263 Q 1501.261 409.477 1499.756 412.209 L 1499.756 412.209 L 1499.756 412.209 Q 1499.254 413.173 1498.46 414.54 L 1498.46 414.54 L 1498.46 414.54 Q 1497.666 415.906 1496.662 417.111 L 1496.662 417.111 L 1496.662 417.111 Q 1495.659 418.316 1494.488 419.2 L 1494.488 419.2 L 1494.488 419.2 Q 1493.317 420.084 1491.979 420.084 L 1491.979 420.084 L 1491.979 420.084 Q 1491.059 420.084 1490.181 419.441 L 1490.181 419.441 L 1490.181 419.441 Q 1489.303 418.798 1489.303 417.834 L 1489.303 417.834 L 1489.303 417.834 Q 1489.303 416.629 1490.223 415.102 L 1490.223 415.102 L 1490.223 415.102 Q 1491.143 413.575 1491.645 412.37 L 1491.645 412.37 L 1491.645 412.37 Q 1494.32 406.343 1496.369 399.633 L 1496.369 399.633 L 1496.369 399.633 Q 1498.418 392.923 1498.418 386.173 L 1498.418 386.173 L 1498.418 386.173 Q 1498.418 379.503 1496.578 372.753 L 1496.578 372.753 L 1496.578 372.753 Q 1494.739 366.003 1491.812 359.896 L 1491.812 359.896 L 1491.812 359.896 Q 1491.31 358.771 1490.599 357.686 L 1490.599 357.686 L 1490.599 357.686 Q 1489.888 356.601 1489.888 355.476 L 1489.888 355.476 L 1489.888 355.476 Q 1489.888 354.351 1490.683 353.668 L 1490.683 353.668 L 1490.683 353.668 Q 1491.477 352.985 1492.564 352.985 L 1492.564 352.985 L 1492.564 352.985 Q 1494.07 352.985 1495.408 353.789 L 1495.408 353.789 L 1495.408 353.789 Q 1496.746 354.592 1497.833 355.798 L 1497.833 355.798 L 1497.833 355.798 Q 1498.92 357.003 1499.756 358.369 L 1499.756 358.369 L 1499.756 358.369 Q 1500.592 359.735 1501.178 360.86 L 1501.178 360.86 L 1501.178 360.86 Q 1504.105 366.646 1505.652 373.155 L 1505.652 373.155 L 1505.652 373.155 Q 1507.199 379.664 1507.199 386.093 Z  M 1465.804 355.476 L 1465.804 355.476 L 1465.804 355.476 Q 1465.804 356.601 1464.884 358.168 L 1464.884 358.168 L 1464.884 358.168 Q 1463.964 359.735 1463.462 360.86 L 1463.462 360.86 L 1463.462 360.86 Q 1460.786 366.887 1458.863 373.517 L 1458.863 373.517 L 1458.863 373.517 Q 1456.94 380.146 1456.94 386.816 L 1456.94 386.816 L 1456.94 386.816 Q 1456.94 393.486 1458.905 400.396 L 1458.905 400.396 L 1458.905 400.396 Q 1460.87 407.307 1463.797 413.334 L 1463.797 413.334 L 1463.797 413.334 Q 1464.382 414.459 1465.093 415.544 L 1465.093 415.544 L 1465.093 415.544 Q 1465.804 416.629 1465.804 417.834 L 1465.804 417.834 L 1465.804 417.834 Q 1465.804 418.959 1465.01 419.602 L 1465.01 419.602 L 1465.01 419.602 Q 1464.215 420.245 1463.044 420.245 L 1463.044 420.245 L 1463.044 420.245 Q 1461.539 420.245 1460.243 419.441 L 1460.243 419.441 L 1460.243 419.441 Q 1458.947 418.638 1457.86 417.432 L 1457.86 417.432 L 1457.86 417.432 Q 1456.772 416.227 1455.894 414.861 L 1455.894 414.861 L 1455.894 414.861 Q 1455.016 413.495 1454.431 412.37 L 1454.431 412.37 L 1454.431 412.37 Q 1451.337 406.584 1449.748 399.995 L 1449.748 399.995 L 1449.748 399.995 Q 1448.159 393.405 1448.159 386.896 L 1448.159 386.896 L 1448.159 386.896 Q 1448.159 383.682 1448.744 380.307 L 1448.744 380.307 L 1448.744 380.307 Q 1449.33 376.932 1450.333 373.597 L 1450.333 373.597 L 1450.333 373.597 Q 1451.337 370.262 1452.633 367.128 L 1452.633 367.128 L 1452.633 367.128 Q 1453.929 363.994 1455.434 361.101 L 1455.434 361.101 L 1455.434 361.101 Q 1455.936 360.137 1456.689 358.771 L 1456.689 358.771 L 1456.689 358.771 Q 1457.441 357.405 1458.445 356.159 L 1458.445 356.159 L 1458.445 356.159 Q 1459.448 354.914 1460.619 354.03 L 1460.619 354.03 L 1460.619 354.03 Q 1461.79 353.146 1463.128 353.146 L 1463.128 353.146 L 1463.128 353.146 Q 1464.215 353.146 1465.01 353.789 L 1465.01 353.789 L 1465.01 353.789 Q 1465.804 354.431 1465.804 355.476 Z " fill-rule="evenodd" fill="rgb(207,210,215)" vector-effect="non-scaling-stroke" stroke-width="3.95" stroke="rgb(207,210,215)" stroke-linejoin="miter" stroke-linecap="square" stroke-miterlimit="3"/><g id="1499133320__Bone"/><path d="M 1294.928 372.579 L 1310.49 372.579 C 1311.197 372.579 1311.77 373.153 1311.77 373.859 L 1311.77 382.432 C 1311.77 383.138 1311.197 383.712 1310.49 383.712 L 1294.928 383.712 C 1293.125 386.112 1290.188 387.675 1286.875 387.675 C 1281.398 387.675 1276.952 383.405 1276.952 378.146 C 1276.952 372.886 1281.398 368.616 1286.875 368.616 C 1290.188 368.616 1293.125 370.179 1294.928 372.579 Z" style="stroke:none;fill:#CFD2D7;stroke-miterlimit:10;"/><path d="M 1560.684 372.219 L 1545.121 372.219 C 1544.414 372.219 1543.841 372.793 1543.841 373.5 L 1543.841 382.072 C 1543.841 382.779 1544.414 383.352 1545.121 383.352 L 1560.684 383.352 C 1562.486 385.752 1565.423 387.315 1568.736 387.315 C 1574.213 387.315 1578.659 383.045 1578.659 377.786 C 1578.659 372.526 1574.213 368.256 1568.736 368.256 C 1565.423 368.256 1562.486 369.82 1560.684 372.219 Z" style="stroke:none;fill:#CFD2D7;stroke-miterlimit:10;"/></g></g></svg>