<svg width="20" height="20" xmlns="http://www.w3.org/2000/svg">

 <g>
  <title>background</title>
  <rect fill="none" id="canvas_background" height="22" width="22" y="-1" x="-1"/>
 </g>
 <g>
  <title>Layer 1</title>
  <path id="svg_1" fill="none" d="m0,0l48,0l0,48l-48,0l0,-48z"/>
  <path stroke="null" id="svg_2" d="m11.899416,6.62891l-1.399075,-1.399075l-4.943727,4.943727l4.943727,4.943727l1.399075,-1.399075l-2.555907,-2.555907l9.561167,0l0,-1.977491l-9.561167,0l2.555907,-2.555907zm-8.814665,12.44336l13.842434,0c1.092564,0 1.977491,-0.884927 1.977491,-1.977491l0,-3.954981l-1.977491,0l0,3.954981l-13.842434,0l0,-13.842434l13.842434,0l0,3.954981l1.977491,0l0,-3.954981c0,-1.092564 -0.884927,-1.977491 -1.977491,-1.977491l-13.842434,0c-1.092564,0 -1.977491,0.884927 -1.977491,1.977491l0,13.842434c0,1.092564 0.884927,1.977491 1.977491,1.977491z"/>
 </g>
</svg>