<svg width="10" height="12" viewBox="0 0 10 12" version="1.1" xmlns="http://www.w3.org/2000/svg" xmlns:xlink="http://www.w3.org/1999/xlink">
<title>Fill 1</title>
<desc>Created using Figma</desc>
<g id="Canvas" transform="translate(-1740 -390)">
<g id="Fill 1">
<use xlink:href="#path0_fill" transform="translate(1740.84 390.251)" fill="#FFFFFF"/>
</g>
</g>
<defs>
<path id="path0_fill" fill-rule="evenodd" d="M 6.28687 0.853394L 6.28687 2.76981L 8.22026 2.76981L 6.28687 0.853394ZM 5.5883 2.76981L 5.5883 0.692581L 1.04776 0.692581C 0.85496 0.692581 0.698486 0.847508 0.698486 1.03913L 0.698486 10.0399C 0.698486 10.2317 0.85496 10.3863 1.04776 10.3863L 8.03321 10.3863C 8.226 10.3863 8.38248 10.2317 8.38248 10.0399L 8.38248 3.46274L 6.28684 3.46274L 5.5883 3.46274L 5.5883 2.76981ZM 9.08108 2.77085L 9.08108 2.77102L 9.08108 10.7327C 9.08108 10.9241 8.92461 11.0789 8.73181 11.0789L 0.349272 11.0789C 0.156474 11.0789 0 10.9241 0 10.7327L 0 0.346724C 0 0.154927 0.156474 0 0.349272 0L 6.2869 0L 6.2869 0.00121172L 6.2869 0.00103861L 9.08003 2.76981L 9.08108 2.76981L 9.08108 2.77085Z"/>
</defs>
</svg>
